# xmcd CD database file
#
# Track frame offsets:
#	150
#	21540
#	35922
#	55976
#	73798
#	90627
#	102431
#	117921
#	135915
#	156494
#
# Disc length: 2397 seconds
#
# Revision: 0
# Processed by: cddbd v1.5.2PL0 Copyright (c) Steve Scherf et al.
# Submitted via: CDex 1.51
#
DISCID=90095b0a
DTITLE=Lovespirals - Long Way from Home
DYEAR=2007
DGENRE=Jazz
TTITLE0=Caught in the Groove
TTITLE1=Empty Universe
TTITLE2=Treading the Water
TTITLE3=Once In a Blue Moon
TTITLE4=This Truth
TTITLE5=Motherless Child
TTITLE6=Sundrenched
TTITLE7=Nocturnal Daze
TTITLE8=Lovelight
TTITLE9=Lazy Love Days
EXTD=YEAR: 2007
EXTT0=
EXTT1=
EXTT2=
EXTT3=
EXTT4=
EXTT5=
EXTT6=
EXTT7=
EXTT8=
EXTT9=
PLAYORDER=
